<svg xmlns="http://www.w3.org/2000/svg" viewBox="0 0 1440 320"><path fill="#0099ff" fill-opacity="1" d="M0,256L18.5,256C36.9,256,74,256,111,266.7C147.7,277,185,299,222,282.7C258.5,267,295,213,332,208C369.2,203,406,245,443,261.3C480,277,517,267,554,218.7C590.8,171,628,85,665,64C701.5,43,738,85,775,106.7C812.3,128,849,128,886,112C923.1,96,960,64,997,58.7C1033.8,53,1071,75,1108,85.3C1144.6,96,1182,96,1218,122.7C1255.4,149,1292,203,1329,229.3C1366.2,256,1403,256,1422,256L1440,256L1440,320L1421.5,320C1403.1,320,1366,320,1329,320C1292.3,320,1255,320,1218,320C1181.5,320,1145,320,1108,320C1070.8,320,1034,320,997,320C960,320,923,320,886,320C849.2,320,812,320,775,320C738.5,320,702,320,665,320C627.7,320,591,320,554,320C516.9,320,480,320,443,320C406.2,320,369,320,332,320C295.4,320,258,320,222,320C184.6,320,148,320,111,320C73.8,320,37,320,18,320L0,320Z"></path></svg>
